<svg width="20" height="20" viewBox="0 0 20 20" fill="none" xmlns="http://www.w3.org/2000/svg">
<g clip-path="url(#clip0_178_1741)">
<path d="M8 3H12C12 1.89543 11.1046 1 10 1C8.89543 1 8 1.89543 8 3ZM6.5 3C6.5 1.067 8.067 -0.5 10 -0.5C11.933 -0.5 13.5 1.067 13.5 3H19.25C19.6642 3 20 3.33579 20 3.75C20 4.16421 19.6642 4.5 19.25 4.5H17.9309L16.7589 16.6112C16.5729 18.5334 14.9575 20 13.0263 20H6.97369C5.04254 20 3.42715 18.5334 3.24113 16.6112L2.06908 4.5H0.75C0.335786 4.5 0 4.16421 0 3.75C0 3.33579 0.335786 3 0.75 3H6.5ZM8.5 7.75C8.5 7.33579 8.16421 7 7.75 7C7.33579 7 7 7.33579 7 7.75V15.25C7 15.6642 7.33579 16 7.75 16C8.16421 16 8.5 15.6642 8.5 15.25V7.75ZM12.25 7C12.6642 7 13 7.33579 13 7.75V15.25C13 15.6642 12.6642 16 12.25 16C11.8358 16 11.5 15.6642 11.5 15.25V7.75C11.5 7.33579 11.8358 7 12.25 7ZM4.73416 16.4667C4.84577 17.62 5.815 18.5 6.97369 18.5H13.0263C14.185 18.5 15.1542 17.62 15.2658 16.4667L16.4239 4.5H3.57608L4.73416 16.4667Z" fill="#0443BD"/>
</g>
<defs>
<clipPath id="clip0_178_1741">
<rect width="20" height="20" fill="white"/>
</clipPath>
</defs>
</svg>
