<svg width="25" height="24" viewBox="0 0 25 24" fill="none" xmlns="http://www.w3.org/2000/svg">
<path d="M4.33331 20.1549C3.78331 20.1549 3.31248 19.959 2.92081 19.5674C2.52915 19.1757 2.33331 18.7049 2.33331 18.1549V4.15488C2.33331 3.60488 2.52915 3.13405 2.92081 2.74238C3.31248 2.35072 3.78331 2.15488 4.33331 2.15488H13.2583L11.2583 4.15488H4.33331V18.1549H18.3333V11.2049L20.3333 9.20488V18.1549C20.3333 18.7049 20.1375 19.1757 19.7458 19.5674C19.3541 19.959 18.8833 20.1549 18.3333 20.1549H4.33331ZM8.33331 14.1549V9.90488L17.5083 0.729883C17.7083 0.529883 17.9333 0.379883 18.1833 0.279883C18.4333 0.179883 18.6833 0.129883 18.9333 0.129883C19.2 0.129883 19.4541 0.179883 19.6958 0.279883C19.9375 0.379883 20.1583 0.529883 20.3583 0.729883L21.7583 2.15488C21.9416 2.35488 22.0833 2.57572 22.1833 2.81738C22.2833 3.05905 22.3333 3.30488 22.3333 3.55488C22.3333 3.80488 22.2875 4.05072 22.1958 4.29238C22.1041 4.53405 21.9583 4.75488 21.7583 4.95488L12.5833 14.1549H8.33331ZM10.3333 12.1549H11.7333L17.5333 6.35488L16.8333 5.65488L16.1083 4.95488L10.3333 10.7299V12.1549Z" fill="#0443BD"/>
</svg>
