<svg width="16" height="16" viewBox="0 0 16 16" fill="none" xmlns="http://www.w3.org/2000/svg">
<path d="M4.16559 13.8573C4.65727 12.205 7 11 8 11C9 11 11.3427 12.205 11.8344 13.8573M4.16559 13.8573C5.26697 14.5798 6.58441 15 8 15C9.41559 15 10.733 14.5798 11.8344 13.8573M4.16559 13.8573C2.25908 12.6067 1 10.4504 1 8C1 4.13401 4.13401 1 8 1C9.71352 1 11.2832 1.61568 12.5 2.63789M11.8344 13.8573C13.7409 12.6067 15 10.4504 15 8C15 6.9264 14.7583 5.90926 14.3264 5M10 6C10 7.38071 9.10457 9 8 9C6.89543 9 6 7.38071 6 6C6 4.61929 6.89543 4 8 4C9.10457 4 10 4.61929 10 6Z" stroke="#0D0D0D" stroke-width="1.5" stroke-linecap="round"/>
</svg>
