<svg width="14" height="17" viewBox="0 0 14 17" fill="none" xmlns="http://www.w3.org/2000/svg">
<path d="M2.25642 16.9166C1.84082 16.9166 1.48585 16.7694 1.19152 16.4751C0.897173 16.1807 0.75 15.8258 0.75 15.4102V7.58971C0.75 7.17412 0.897173 6.81915 1.19152 6.52482C1.48585 6.23047 1.84082 6.0833 2.25642 6.0833H3.25V4.41663C3.25 3.37605 3.61485 2.49091 4.34454 1.76121C5.07425 1.03152 5.9594 0.666672 6.99998 0.666672C8.04056 0.666672 8.92571 1.03152 9.65542 1.76121C10.3851 2.49091 10.75 3.37605 10.75 4.41663V6.0833H11.7435C12.1591 6.0833 12.5141 6.23047 12.8084 6.52482C13.1028 6.81915 13.25 7.17412 13.25 7.58971V15.4102C13.25 15.8258 13.1028 16.1807 12.8084 16.4751C12.5141 16.7694 12.1591 16.9166 11.7435 16.9166H2.25642ZM2.25642 15.6666H11.7435C11.8183 15.6666 11.8798 15.6426 11.9279 15.5945C11.9759 15.5464 12 15.485 12 15.4102V7.58971C12 7.51492 11.9759 7.45348 11.9279 7.4054C11.8798 7.35732 11.8183 7.33328 11.7435 7.33328H2.25642C2.18163 7.33328 2.12019 7.35732 2.0721 7.4054C2.02402 7.45348 1.99998 7.51492 1.99998 7.58971V15.4102C1.99998 15.485 2.02402 15.5464 2.0721 15.5945C2.12019 15.6426 2.18163 15.6666 2.25642 15.6666ZM6.99998 12.9583C7.4049 12.9583 7.74917 12.8164 8.03281 12.5328C8.31647 12.2491 8.45829 11.9049 8.45829 11.4999C8.45829 11.095 8.31647 10.7507 8.03281 10.4671C7.74917 10.1835 7.4049 10.0416 6.99998 10.0416C6.59506 10.0416 6.25078 10.1835 5.96715 10.4671C5.68349 10.7507 5.54167 11.095 5.54167 11.4999C5.54167 11.9049 5.68349 12.2491 5.96715 12.5328C6.25078 12.8164 6.59506 12.9583 6.99998 12.9583ZM4.49998 6.0833H9.49998V4.41663C9.49998 3.72219 9.25692 3.13191 8.77081 2.6458C8.2847 2.15969 7.69442 1.91663 6.99998 1.91663C6.30553 1.91663 5.71526 2.15969 5.22915 2.6458C4.74303 3.13191 4.49998 3.72219 4.49998 4.41663V6.0833Z" fill="#6A6A6A"/>
</svg>
