<svg width="18" height="18" viewBox="0 0 18 18" fill="none" xmlns="http://www.w3.org/2000/svg">
<path d="M11.8162 10.6914H11.2237L11.0137 10.4889C11.7487 9.63391 12.1912 8.52391 12.1912 7.31641C12.1912 4.62391 10.0087 2.44141 7.31622 2.44141C4.62372 2.44141 2.44122 4.62391 2.44122 7.31641C2.44122 10.0089 4.62372 12.1914 7.31622 12.1914C8.52372 12.1914 9.63372 11.7489 10.4887 11.0139L10.6912 11.2239V11.8164L14.4412 15.5589L15.5587 14.4414L11.8162 10.6914ZM7.31622 10.6914C5.44872 10.6914 3.94122 9.18391 3.94122 7.31641C3.94122 5.44891 5.44872 3.94141 7.31622 3.94141C9.18372 3.94141 10.6912 5.44891 10.6912 7.31641C10.6912 9.18391 9.18372 10.6914 7.31622 10.6914Z" fill="#999999"/>
</svg>
