<svg width="18" height="12" viewBox="0 0 18 12" fill="none" xmlns="http://www.w3.org/2000/svg">
<path d="M12.6557 2.06813C11.5599 1.44435 10.3171 1 9 1C5.9221 1 3.25017 3.42646 1.91227 4.8987C1.33619 5.53262 1.33619 6.46738 1.91227 7.1013C3.25017 8.57354 5.9221 11 9 11C12.0779 11 14.7498 8.57354 16.0877 7.1013C16.6638 6.46738 16.6629 5.53152 16.0868 4.89764C15.7093 4.48231 15.2257 3.99116 14.6569 3.5M11 6C11 7.10457 10.1046 8 9 8C7.89543 8 7 7.10457 7 6C7 4.89543 7.89543 4 9 4C10.1046 4 11 4.89543 11 6Z" stroke="#0D0D0D" stroke-width="1.5" stroke-linecap="round" stroke-linejoin="round"/>
</svg>
